<svg preserveAspectRatio="none" width="100%" height="100%" overflow="visible" viewBox="0 0 216 216" fill="none" xmlns="http://www.w3.org/2000/svg">
  <g id="Logo">
    <rect width="216" height="216" fill="#13233A"/>
    <path d="M69.0895 31.5538C75.6039 31.6347 81.127 32.8688 85.6588 35.256C90.2312 37.6028 93.7722 41.0023 96.2809 45.4532C98.7895 49.904 100.246 55.3461 100.651 61.7794L80.8034 61.7189C80.6011 59.0484 80.095 56.7019 79.2858 54.6788C78.517 52.6152 77.2831 50.9968 75.5837 49.8234C73.8842 48.6499 71.5579 48.0024 68.6042 47.881C65.0434 47.7191 62.0084 48.4671 59.4997 50.1261C56.991 51.7446 54.8866 53.9102 53.1872 56.6212C51.5283 59.3321 50.2139 62.266 49.2428 65.422C48.3122 68.5779 47.6445 71.5922 47.2399 74.465L46.5719 79.5636C46.2483 82.2745 46.0454 85.1472 45.9645 88.1818C45.924 91.2165 46.2684 94.0698 46.9967 96.7403C47.7251 99.4107 49.0404 101.596 50.9421 103.295C52.8843 104.994 55.6564 105.885 59.2575 105.966C60.8354 106.006 62.3527 105.905 63.8092 105.662C65.3063 105.419 66.7431 105.035 68.1188 104.509C69.5349 103.942 70.8905 103.235 72.1852 102.385L74.9167 88.6066H60.5319L63.0807 73.9796H98.2233L93.2838 105.448L94.4645 158.552L114.672 103.72H132.334L135.691 158.929L154.123 103.72H175.062L143.015 192.092H121.59L117.976 142.022L98.9518 192.092H77.4049L73.8649 120.52C72.4167 120.865 70.9467 121.153 69.4538 121.382C65.003 122.11 60.8151 122.434 56.8903 122.353C50.7399 122.272 45.4991 121.058 41.1696 118.711C36.8808 116.364 33.4618 113.188 30.9128 109.183C28.3636 105.177 26.6438 100.625 25.7536 95.5265C24.8634 90.4282 24.762 85.0868 25.4499 79.503L26.1178 74.6476C26.8866 68.9019 28.3836 63.4391 30.609 58.2599C32.875 53.0401 35.8086 48.4068 39.4098 44.3605C43.011 40.3141 47.28 37.1376 52.2165 34.8312C57.1934 32.5248 62.8178 31.4324 69.0895 31.5538Z" fill="url(#paint0_linear)"/>
    <g>
      <circle cx="143.5" cy="62.5" r="31" fill="#D9D9D9" stroke="url(#paint1_linear)" stroke-width="5"/>
      <path d="M142.186 49.3628V65.1275L152.696 70.3824" stroke="#1E1E1E" stroke-width="5" stroke-linecap="round" stroke-linejoin="round"/>
    </g>
  </g>
  <defs>
    <linearGradient id="paint0_linear" x1="55.5549" y1="0.296326" x2="159.95" y2="262.983" gradientUnits="userSpaceOnUse">
      <stop offset="0.292509" stop-color="#FCC321"/>
      <stop offset="1" stop-color="#967414"/>
    </linearGradient>
    <linearGradient id="paint1_linear" x1="143" y1="22" x2="177" y2="117.5" gradientUnits="userSpaceOnUse">
      <stop offset="0.269231" stop-color="#4874D1"/>
      <stop offset="0.961538" stop-color="#2B509D"/>
    </linearGradient>
  </defs>
</svg>
